# xmcd
#
# Track frame offsets: 
#        150
#        15538
#        26972
#        43714
#        60923
#        75490
#        89792
#        100192
#        119605
#        131941
#        148655
#        167738
#        182176
#        196012
#
# Disc length: 2810 seconds
#
# Revision: 4
# Processed by: cddbd v1.5.2PL0 Copyright (c) Steve Scherf et al.
# Submitted via: ExactAudioCopyFreeDBPlugin 1.0
#
DISCID=c20af80e
DTITLE=John Mayall - The Blues Alone
DYEAR=1967
DGENRE=Blues
TTITLE0=Brand New Start
TTITLE1=Please Don't Tell
TTITLE2=Down the Line
TTITLE3=Sonny Boy Blow
TTITLE4=Marsha's Mood
TTITLE5=No More Tears
TTITLE6=Catch That Train
TTITLE7=Cancelling Out
TTITLE8=Harp Man
TTITLE9=Brown Sugar
TTITLE10=Broken Wings
TTITLE11=Don't Kick Me
TTITLE12=Brand New Start (first version)
TTITLE13=Marsha's Mood (first version)
EXTD=
EXTT0=
EXTT1=
EXTT2=
EXTT3=
EXTT4=
EXTT5=
EXTT6=
EXTT7=
EXTT8=
EXTT9=
EXTT10=
EXTT11=
EXTT12=
EXTT13=
PLAYORDER=
